# xmcd CD database file
#
# Track frame offsets:
#	150
#	22045
#	43005
#	62950
#	82225
#	97962
#	119645
#	138010
#	156537
#	175692
#	191500
#	211860
#	231315
#	250755
#	269742
#	302672
#
# Disc length: 4795 seconds
#
# Revision: 1
# Processed by: cddbd v1.5.2PL0 Copyright (c) Steve Scherf et al.
# Submitted via: CDex 1.70beta2
#
DISCID=e812b910
DTITLE=Do As Infinity - Do The Best “Great Suppoters Selection” Disc 2
DYEAR=2006
DGENRE=JPop
TTITLE0=夜鷹の夢
TTITLE1=TAO
TTITLE2=タダイマ
TTITLE3=Week!
TTITLE4=One or Eight
TTITLE5=new world
TTITLE6=深い森
TTITLE7=under the sun
TTITLE8=真実の詩
TTITLE9=菜の花畑
TTITLE10=Desire
TTITLE11=Tangerine Dream
TTITLE12=nice and easy
TTITLE13=BE FREE
TTITLE14=永遠
TTITLE15=CCCD
EXTD=YEAR: 2006
EXTT0=
EXTT1=
EXTT2=
EXTT3=
EXTT4=
EXTT5=
EXTT6=
EXTT7=
EXTT8=
EXTT9=
EXTT10=
EXTT11=
EXTT12=
EXTT13=
EXTT14=
EXTT15=
PLAYORDER=
